<svg xmlns="http://www.w3.org/2000/svg" width="1800" height="1120" viewBox="0 0 1800 1120">
  <defs>
    <style>
      .title { font: 700 28px 'Segoe UI', Arial, sans-serif; fill: #0f172a; }
      .subtitle { font: 500 15px 'Segoe UI', Arial, sans-serif; fill: #334155; }
      .zone { fill: #f8fafc; stroke: #cbd5e1; stroke-width: 2; rx: 14; }
      .module { fill: #ffffff; stroke: #94a3b8; stroke-width: 1.8; rx: 10; }
      .mtext { font: 600 13px 'Segoe UI', Arial, sans-serif; fill: #0f172a; }
      .msub { font: 500 11px 'Segoe UI', Arial, sans-serif; fill: #475569; }
      .actor { fill: #eef2ff; stroke: #818cf8; stroke-width: 1.6; rx: 10; }
      .store { fill: #ecfeff; stroke: #0891b2; stroke-width: 1.6; rx: 10; }
      .edge { stroke: #334155; stroke-width: 1.8; fill: none; marker-end: url(#arrow); }
      .edge2 { stroke: #64748b; stroke-width: 1.4; fill: none; marker-end: url(#arrow); }
      .callout { fill: #fefce8; stroke: #eab308; stroke-width: 1.4; rx: 8; }
      .ctext { font: 600 12px 'Segoe UI', Arial, sans-serif; fill: #713f12; }
    </style>
    <marker id="arrow" viewBox="0 0 10 10" refX="8.5" refY="5" markerWidth="8" markerHeight="8" orient="auto-start-reverse">
      <path d="M 0 0 L 10 5 L 0 10 z" fill="#334155"/>
    </marker>
  </defs>

  <text x="40" y="44" class="title">SkuldBot Orchestrator - Arquitectura Ejecutiva (12 Modulos)</text>
  <text x="40" y="70" class="subtitle">Flow Engine + Bot Engine + Agentic Runtime | Contrato unico: bot.call | Cloud-agnostic | Compliance-first</text>

  <rect x="40" y="110" width="250" height="64" class="actor"/>
  <text x="58" y="140" class="mtext">Studio (Tauri + React)</text>
  <text x="58" y="158" class="msub">DSL / Compile / Publish</text>

  <rect x="320" y="110" width="250" height="64" class="actor"/>
  <text x="338" y="140" class="mtext">Admin UI (Orchestrator)</text>
  <text x="338" y="158" class="msub">Ops / Runners / Jobs</text>

  <rect x="600" y="110" width="260" height="64" class="actor"/>
  <text x="618" y="140" class="mtext">External Systems</text>
  <text x="618" y="158" class="msub">Webhook / MQ / Storage / APIs</text>

  <rect x="40" y="200" width="1220" height="770" class="zone"/>
  <text x="58" y="230" class="mtext">Customer Orchestrator (in tenant subscription / on-prem)</text>

  <rect x="70" y="260" width="270" height="92" class="module"/>
  <text x="84" y="286" class="mtext">1) API Gateway + Auth/RBAC</text>
  <text x="84" y="304" class="msub">M1 Identity | M2 RBAC | M3 Tenancy</text>

  <rect x="360" y="260" width="270" height="92" class="module"/>
  <text x="374" y="286" class="mtext">2) Bot Registry / Versionado</text>
  <text x="374" y="304" class="msub">M4 Bot Registry | M5 Compiler/Package</text>

  <rect x="650" y="260" width="270" height="92" class="module"/>
  <text x="664" y="286" class="mtext">12) Scheduler / Triggers</text>
  <text x="664" y="304" class="msub">M9 Trigger/Scheduler + M19 EventBus</text>

  <rect x="940" y="260" width="290" height="92" class="module"/>
  <text x="954" y="286" class="mtext">3) Run Lifecycle Manager</text>
  <text x="954" y="304" class="msub">M6 Run Manager (state machine)</text>

  <rect x="70" y="380" width="270" height="100" class="module"/>
  <text x="84" y="406" class="mtext">4) Dispatch + Queue Manager</text>
  <text x="84" y="424" class="msub">M7 Dispatch Router</text>
  <text x="84" y="440" class="msub">M8 Transport(BullMQ) + Business Queues</text>

  <rect x="360" y="380" width="270" height="100" class="module"/>
  <text x="374" y="406" class="mtext">7) Service Worker Pool Manager</text>
  <text x="374" y="424" class="msub">M21 SW lifecycle, autoscale, isolation</text>
  <text x="374" y="440" class="msub">Flow engine workers (containers)</text>

  <rect x="650" y="380" width="270" height="100" class="module"/>
  <text x="664" y="406" class="mtext">5) Runner Manager</text>
  <text x="664" y="424" class="msub">M10 Runner Registry + M12 Power Manager</text>
  <text x="664" y="440" class="msub">Pools, capabilities, 9 power providers</text>

  <rect x="940" y="380" width="290" height="100" class="module"/>
  <text x="954" y="406" class="mtext">6) Session Broker</text>
  <text x="954" y="424" class="msub">M11 RDP session assignment / cleanup</text>
  <text x="954" y="440" class="msub">Per-job isolation, PII scrub policy</text>

  <rect x="70" y="510" width="270" height="100" class="module"/>
  <text x="84" y="536" class="mtext">8) Secrets &amp; Credential Broker</text>
  <text x="84" y="554" class="msub">M13 Vault plugins (BYO secrets)</text>
  <text x="84" y="570" class="msub">Never expose secrets to frontend</text>

  <rect x="360" y="510" width="270" height="100" class="module"/>
  <text x="374" y="536" class="mtext">9) Policy / Compliance Engine</text>
  <text x="374" y="554" class="msub">M16 Policy Packs compile+runtime</text>
  <text x="374" y="570" class="msub">M22 BYOM Routing &amp; Provider Registry</text>

  <rect x="650" y="510" width="270" height="100" class="module"/>
  <text x="664" y="536" class="mtext">10) Evidence &amp; Audit Engine</text>
  <text x="664" y="554" class="msub">M15 Evidence Pack (WORM signed)</text>
  <text x="664" y="570" class="msub">Audit trail separado (operacional)</text>

  <rect x="940" y="510" width="290" height="100" class="module"/>
  <text x="954" y="536" class="mtext">11) Observability</text>
  <text x="954" y="554" class="msub">M18 OTLP traces, metrics, logs, audit</text>
  <text x="954" y="570" class="msub">CorrelationId end-to-end</text>

  <rect x="70" y="640" width="1160" height="66" class="callout"/>
  <text x="90" y="668" class="ctext">Invariante: Flow -> Orchestrator Dispatch -> Bot Job -> Runner -> Result -> Flow</text>
  <text x="90" y="688" class="ctext">Prohibido: Flow -> Runner directo | Contrato unico de invocacion: bot.call</text>

  <rect x="1280" y="200" width="480" height="500" class="zone"/>
  <text x="1298" y="230" class="mtext">Execution Plane</text>

  <rect x="1310" y="260" width="420" height="110" class="module"/>
  <text x="1326" y="288" class="mtext">Service Workers (Flow Runtime)</text>
  <text x="1326" y="308" class="msub">Containers / K8s jobs | stateless compute</text>
  <text x="1326" y="326" class="msub">Receives flow runs from M21 + M7</text>

  <rect x="1310" y="395" width="420" height="130" class="module"/>
  <text x="1326" y="423" class="mtext">Desktop Runners (Bot Runtime)</text>
  <text x="1326" y="443" class="msub">Windows/macOS/Linux | UI automation</text>
  <text x="1326" y="461" class="msub">RDP/Citrix/SAP/Legacy | session-isolated</text>
  <text x="1326" y="479" class="msub">Managed by M10/M11/M12</text>

  <rect x="1310" y="550" width="420" height="120" class="module"/>
  <text x="1326" y="578" class="mtext">Runner Agent</text>
  <text x="1326" y="598" class="msub">register / heartbeat / poll / claim / execute</text>
  <text x="1326" y="616" class="msub">Returns status, output, artifacts, evidence refs</text>

  <rect x="40" y="990" width="1720" height="100" class="zone"/>
  <text x="58" y="1018" class="mtext">Data Plane (tenant-owned)</text>

  <rect x="260" y="1028" width="220" height="44" class="store"/>
  <text x="278" y="1056" class="mtext">PostgreSQL</text>

  <rect x="500" y="1028" width="220" height="44" class="store"/>
  <text x="518" y="1056" class="mtext">Redis / BullMQ</text>

  <rect x="740" y="1028" width="280" height="44" class="store"/>
  <text x="758" y="1056" class="mtext">Object Storage (WORM)</text>

  <rect x="1040" y="1028" width="250" height="44" class="store"/>
  <text x="1058" y="1056" class="mtext">Vault / KMS</text>

  <rect x="1310" y="1028" width="280" height="44" class="store"/>
  <text x="1328" y="1056" class="mtext">OTLP / Monitoring Backend</text>

  <path d="M290,142 L70,296" class="edge"/>
  <path d="M570,142 L70,296" class="edge2"/>
  <path d="M860,142 L650,296" class="edge2"/>
  <path d="M340,306 L360,306" class="edge"/>
  <path d="M630,306 L650,306" class="edge"/>
  <path d="M920,306 L940,306" class="edge"/>
  <path d="M1085,352 L1085,380" class="edge"/>
  <path d="M340,430 L360,430" class="edge"/>
  <path d="M630,430 L650,430" class="edge"/>
  <path d="M920,430 L940,430" class="edge"/>
  <path d="M205,480 L205,510" class="edge2"/>
  <path d="M495,480 L495,510" class="edge2"/>
  <path d="M785,480 L785,510" class="edge2"/>
  <path d="M1085,480 L1085,510" class="edge2"/>
  <path d="M630,430 L1310,315" class="edge"/>
  <path d="M1230,430 L1310,460" class="edge"/>
  <path d="M1230,430 L1310,610" class="edge2"/>
  <path d="M1520,550 L920,430" class="edge2"/>
  <path d="M1085,610 L1085,1028" class="edge2"/>
  <path d="M785,610 L860,1028" class="edge2"/>
  <path d="M205,610 L370,1028" class="edge2"/>
  <path d="M495,610 L605,1028" class="edge2"/>
  <path d="M995,610 L1450,1028" class="edge2"/>

  <text x="1350" y="1094" class="subtitle">© 2026 Skuld, LLC</text>
</svg>
